<svg id="SvgjsSvg1000" xmlns="http://www.w3.org/2000/svg" version="1.1" xmlns:xlink="http://www.w3.org/1999/xlink" xmlns:svgjs="http://svgjs.com/svgjs" width="93.5" height="94.6" viewBox="0 0 93.5 94.6"><title>Icon</title><desc>Created with Avocode.</desc><defs id="SvgjsDefs1001"><filter id="SvgjsFilter1008" width="200%" height="200%" x="-50%" y="-50%"><feMorphology id="SvgjsFeMorphology1009" operator="dilate" radius="0" result="SvgjsFeMorphology1009Out" in="SourceGraphic"></feMorphology><feOffset id="SvgjsFeOffset1010" dx="1.5" dy="2.6" result="SvgjsFeOffset1010Out" in="SvgjsFeMorphology1009Out"></feOffset><feGaussianBlur id="SvgjsFeGaussianBlur1011" stdDeviation="0 " result="SvgjsFeGaussianBlur1011Out" in="SvgjsFeOffset1010Out"></feGaussianBlur><feComposite id="SvgjsFeComposite1012" in="SvgjsFeGaussianBlur1011Out" in2="SourceAlpha" operator="out" result="SvgjsFeComposite1012Out"></feComposite></filter><linearGradient id="SvgjsLinearGradient1016" gradientUnits="userSpaceOnUse" x1="354" y1="131.63958847526777" x2="446" y2="76.36041152473223"><stop id="SvgjsStop1017" stop-opacity="1" stop-color="#47aae6" offset="0"></stop><stop id="SvgjsStop1018" stop-opacity="1" stop-color="#9372bf" offset="1"></stop></linearGradient><filter id="SvgjsFilter1020" width="200%" height="200%" x="-50%" y="-50%"><feMorphology id="SvgjsFeMorphology1021" operator="dilate" radius="0" result="SvgjsFeMorphology1021Out" in="SourceGraphic"></feMorphology><feOffset id="SvgjsFeOffset1022" dx="1.5" dy="2.6" result="SvgjsFeOffset1022Out" in="SvgjsFeMorphology1021Out"></feOffset><feGaussianBlur id="SvgjsFeGaussianBlur1023" stdDeviation="0 " result="SvgjsFeGaussianBlur1023Out" in="SvgjsFeOffset1022Out"></feGaussianBlur><feComposite id="SvgjsFeComposite1024" in="SvgjsFeGaussianBlur1023Out" in2="SourceAlpha" operator="out" result="SvgjsFeComposite1024Out"></feComposite></filter><clipPath id="SvgjsClipPath1029"><path id="SvgjsPath1028" d="M360 144V64H440V144ZM363.188 104C363.188 124.331 379.669 140.813 400 140.813C420.331 140.813 436.812 124.33099999999999 436.812 103.99999999999999C436.812 83.66899999999998 420.331 67.18749999999999 400 67.18749999999999C379.669 67.18749999999999 363.188 83.66899999999998 363.188 103.99999999999999Z " fill="#ffffff"></path></clipPath><filter id="SvgjsFilter1031" width="200%" height="200%" x="-50%" y="-50%"><feMorphology id="SvgjsFeMorphology1032" operator="dilate" radius="0" result="SvgjsFeMorphology1032Out" in="SourceGraphic"></feMorphology><feOffset id="SvgjsFeOffset1033" dx="1.5" dy="2.6" result="SvgjsFeOffset1033Out" in="SvgjsFeMorphology1032Out"></feOffset><feGaussianBlur id="SvgjsFeGaussianBlur1034" stdDeviation="0 " result="SvgjsFeGaussianBlur1034Out" in="SvgjsFeOffset1033Out"></feGaussianBlur><feComposite id="SvgjsFeComposite1035" in="SvgjsFeGaussianBlur1034Out" in2="SourceAlpha" operator="out" result="SvgjsFeComposite1035Out"></feComposite></filter></defs><path id="SvgjsPath1007" d="M400 58C425.405 58 446 78.5949 446 104C446 129.405 425.405 150 400 150C374.595 150 354 129.405 354 104C354 78.5949 374.595 58 400 58Z " fill="#000000" fill-opacity="0.13" filter="url(#SvgjsFilter1008)" transform="matrix(1,0,0,1,-354,-58)"></path><path id="SvgjsPath1013" d="M400 58C425.405 58 446 78.5949 446 104C446 129.405 425.405 150 400 150C374.595 150 354 129.405 354 104C354 78.5949 374.595 58 400 58Z " fill="#000000" fill-opacity="1" transform="matrix(1,0,0,1,-354,-58)"></path><path id="SvgjsPath1014" d="M400 58C425.405 58 446 78.5949 446 104C446 129.405 425.405 150 400 150C374.595 150 354 129.405 354 104C354 78.5949 374.595 58 400 58Z " fill="#000000" fill-opacity="1" transform="matrix(1,0,0,1,-354,-58)"></path><path id="SvgjsPath1015" d="M400 58C425.405 58 446 78.5949 446 104C446 129.405 425.405 150 400 150C374.595 150 354 129.405 354 104C354 78.5949 374.595 58 400 58Z " fill="url(#SvgjsLinearGradient1016)" transform="matrix(1,0,0,1,-354,-58)"></path><path id="SvgjsPath1019" d="M400 67.1875C420.331 67.1875 436.812 83.669 436.812 104C436.812 124.331 420.331 140.813 400 140.813C379.669 140.813 363.188 124.33099999999999 363.188 103.99999999999999C363.188 83.66899999999998 379.669 67.18749999999999 400 67.18749999999999Z " fill="#000000" fill-opacity="0.13" filter="url(#SvgjsFilter1020)" transform="matrix(1,0,0,1,-354,-58)"></path><path id="SvgjsPath1025" d="M400 67.1875C420.331 67.1875 436.812 83.669 436.812 104C436.812 124.331 420.331 140.813 400 140.813C379.669 140.813 363.188 124.33099999999999 363.188 103.99999999999999C363.188 83.66899999999998 379.669 67.18749999999999 400 67.18749999999999Z " fill="#000000" fill-opacity="0" transform="matrix(1,0,0,1,-354,-58)"></path><path id="SvgjsPath1026" d="M400 67.1875C420.331 67.1875 436.812 83.669 436.812 104C436.812 124.331 420.331 140.813 400 140.813C379.669 140.813 363.188 124.33099999999999 363.188 103.99999999999999C363.188 83.66899999999998 379.669 67.18749999999999 400 67.18749999999999Z " fill="#000000" fill-opacity="0" transform="matrix(1,0,0,1,-354,-58)"></path><path id="SvgjsPath1027" d="M400 67.1875C420.331 67.1875 436.812 83.669 436.812 104C436.812 124.331 420.331 140.813 400 140.813C379.669 140.813 363.188 124.33099999999999 363.188 103.99999999999999C363.188 83.66899999999998 379.669 67.18749999999999 400 67.18749999999999Z " fill-opacity="0" fill="#ffffff" stroke-dashoffset="0" stroke-linejoin="round" stroke-linecap="round" stroke-opacity="1" stroke="#ffffff" stroke-miterlimit="50" stroke-width="6" clip-path="url(&quot;#SvgjsClipPath1029&quot;)" transform="matrix(1,0,0,1,-354,-58)"></path><path id="SvgjsPath1030" d="M420.072 88.7508H380.928C380.142 88.7508 379.504 89.3878 379.504 90.1734V117.827C379.504 118.612 380.142 119.249 380.928 119.249H420.072C420.858 119.249 421.496 118.612 421.496 117.827V90.1734C421.496 89.3878 420.858 88.7508 420.072 88.7508ZM418.648 116.404H382.35200000000003V91.5959H418.648ZM386.083 98.297L399.75300000000004 106.711C399.982 106.852 400.24100000000004 106.923 400.50000000000006 106.923C400.75900000000007 106.923 401.01800000000003 106.852 401.24700000000007 106.711L414.9170000000001 98.297C415.58600000000007 97.8849 415.7950000000001 97.0085 415.38200000000006 96.3397C414.9700000000001 95.67089999999999 414.09200000000004 95.4626 413.42300000000006 95.8748L400.50000000000006 103.829L387.57700000000006 95.8748C386.9080000000001 95.46289999999999 386.03100000000006 95.6707 385.61800000000005 96.3397C385.20500000000004 97.0085 385.41400000000004 97.88489999999999 386.083 98.297Z " fill="#000000" fill-opacity="0.13" filter="url(#SvgjsFilter1031)" transform="matrix(1,0,0,1,-354,-58)"></path><path id="SvgjsPath1036" d="M420.072 88.7508H380.928C380.142 88.7508 379.504 89.3878 379.504 90.1734V117.827C379.504 118.612 380.142 119.249 380.928 119.249H420.072C420.858 119.249 421.496 118.612 421.496 117.827V90.1734C421.496 89.3878 420.858 88.7508 420.072 88.7508ZM418.648 116.404H382.35200000000003V91.5959H418.648ZM386.083 98.297L399.75300000000004 106.711C399.982 106.852 400.24100000000004 106.923 400.50000000000006 106.923C400.75900000000007 106.923 401.01800000000003 106.852 401.24700000000007 106.711L414.9170000000001 98.297C415.58600000000007 97.8849 415.7950000000001 97.0085 415.38200000000006 96.3397C414.9700000000001 95.67089999999999 414.09200000000004 95.4626 413.42300000000006 95.8748L400.50000000000006 103.829L387.57700000000006 95.8748C386.9080000000001 95.46289999999999 386.03100000000006 95.6707 385.61800000000005 96.3397C385.20500000000004 97.0085 385.41400000000004 97.88489999999999 386.083 98.297Z " fill="#ffffff" fill-opacity="1" transform="matrix(1,0,0,1,-354,-58)"></path></svg>